<?xml version="1.0" encoding="UTF-8"?>
<svg width="1200pt" height="1200pt" version="1.1" viewBox="0 0 1200 1200" xmlns="http://www.w3.org/2000/svg">
 <g>
  <path d="m1050 1e3h-900c-55.168 0-100-44.832-100-100v-600c0-55.168 44.832-100 100-100h900c55.168 0 100 44.832 100 100v600c0 55.168-44.832 100-100 100zm-900-766.67c-36.832 0-66.668 29.832-66.668 66.668v600c0 36.832 29.832 66.668 66.668 66.668h900c36.832 0 66.668-29.832 66.668-66.668v-600c0-36.832-29.832-66.668-66.668-66.668z"/>
  <path d="m1e3 933.33h-800c-46 0-83.332-37.332-83.332-83.332v-316.67c0-9.168 7.5-16.668 16.668-16.668 9.168 0 16.668 7.5 16.668 16.668v316.67c0 27.5 22.5 50 50 50h800c27.5 0 50-22.5 50-50l-0.003906-500c0-27.5-22.5-50-50-50h-383.33c-9.168 0-16.668-7.5-16.668-16.668s7.5-16.668 16.668-16.668h383.33c46 0 83.332 37.332 83.332 83.332v500c0 46.004-37.332 83.336-83.332 83.336z"/>
  <path d="m833.33 866.67c-2.5 0-5-0.5-7.168-1.668-7.1641-3.5-176.16-86.332-176.16-231.67 0-55.168 44.832-100 100-100 34.668 0 65.332 17.832 83.332 44.832 18-27 48.668-44.832 83.332-44.832 55.168 0 100 44.832 100 100 0 145.33-169 228.17-176.17 231.67-2.1641 1.168-4.6641 1.668-7.1641 1.668zm-83.332-300c-36.832 0-66.668 29.832-66.668 66.668 0 109 119.17 181 150 197.83 30.832-16.832 150-89.168 150-197.83 0-36.832-29.832-66.668-66.668-66.668-36.832 0-66.668 29.832-66.668 66.668 0 9.168-7.5 16.668-16.668 16.668s-16.668-7.5-16.668-16.668c0.007813-36.836-29.828-66.668-66.66-66.668z"/>
  <path d="m433.33 583.33h-0.83203c-7.5-0.33203-13.832-5.5-15.5-12.832l-66.668-283.33c-2.168-9 3.5-18 12.332-20 9-2.168 18 3.5 20 12.332l53.168 226.17 48.168-144.33c2.168-6.332 7.832-10.832 14.668-11.332 6.668-0.5 13 3.168 16.168 9.168l28.832 57.496h273c9.168 0 16.668 7.5 16.668 16.668 0 9.168-7.5 16.668-16.668 16.668l-283.34-0.003906c-6.332 0-12.168-3.5-14.832-9.168l-15.332-30.668-54 161.83c-2.3359 6.8359-8.668 11.336-15.836 11.336z"/>
  <path d="m316.67 516.67c-6.332 0-12-3.5-14.832-9.168l-28.836-57.5h-139.67c-9.168 0-16.668-7.5-16.668-16.668s7.5-16.668 16.668-16.668h150c6.332 0 12.168 3.5 14.832 9.168l12.668 25.168 39.5-171.5c2-9 11.168-14.5 20-12.5 9 2 14.5 11 12.5 20l-50 216.67c-1.668 6.832-7.332 12-14.332 12.832-0.5 0.16797-1.168 0.16797-1.832 0.16797z"/>
  <path d="m566.67 866.67h-50c-9.168 0-16.668-7.5-16.668-16.668s7.5-16.668 16.668-16.668h50c9.168 0 16.668 7.5 16.668 16.668-0.003907 9.168-7.5039 16.668-16.668 16.668z"/>
  <path d="m566.67 816.67h-50c-9.168 0-16.668-7.5-16.668-16.668s7.5-16.668 16.668-16.668h50c9.168 0 16.668 7.5 16.668 16.668-0.003907 9.168-7.5039 16.668-16.668 16.668z"/>
  <path d="m566.67 766.67h-50c-9.168 0-16.668-7.5-16.668-16.668s7.5-16.668 16.668-16.668h50c9.168 0 16.668 7.5 16.668 16.668-0.003907 9.168-7.5039 16.668-16.668 16.668z"/>
  <path d="m566.67 716.67h-50c-9.168 0-16.668-7.5-16.668-16.668s7.5-16.668 16.668-16.668h50c9.168 0 16.668 7.5 16.668 16.668-0.003907 9.168-7.5039 16.668-16.668 16.668z"/>
  <path d="m566.67 666.67h-50c-9.168 0-16.668-7.5-16.668-16.668s7.5-16.668 16.668-16.668h50c9.168 0 16.668 7.5 16.668 16.668-0.003907 9.168-7.5039 16.668-16.668 16.668z"/>
  <path d="m466.67 866.67h-50c-9.168 0-16.668-7.5-16.668-16.668s7.5-16.668 16.668-16.668h50c9.168 0 16.668 7.5 16.668 16.668-0.003907 9.168-7.5039 16.668-16.668 16.668z"/>
  <path d="m466.67 816.67h-50c-9.168 0-16.668-7.5-16.668-16.668s7.5-16.668 16.668-16.668h50c9.168 0 16.668 7.5 16.668 16.668-0.003907 9.168-7.5039 16.668-16.668 16.668z"/>
  <path d="m466.67 766.67h-50c-9.168 0-16.668-7.5-16.668-16.668s7.5-16.668 16.668-16.668h50c9.168 0 16.668 7.5 16.668 16.668-0.003907 9.168-7.5039 16.668-16.668 16.668z"/>
  <path d="m366.67 866.67h-50c-9.168 0-16.668-7.5-16.668-16.668s7.5-16.668 16.668-16.668h50c9.168 0 16.668 7.5 16.668 16.668-0.003907 9.168-7.5039 16.668-16.668 16.668z"/>
  <path d="m366.67 816.67h-50c-9.168 0-16.668-7.5-16.668-16.668s7.5-16.668 16.668-16.668h50c9.168 0 16.668 7.5 16.668 16.668-0.003907 9.168-7.5039 16.668-16.668 16.668z"/>
 </g>
</svg>
