<?xml version="1.0" encoding="UTF-8"?>
<svg width="1200pt" height="1200pt" version="1.1" viewBox="0 0 1200 1200" xmlns="http://www.w3.org/2000/svg">
 <path d="m154.41 181.5c-52.137 0-94.414 42.277-94.414 94.414 0 52.141 42.277 94.414 94.414 94.414 52.141 0 94.414-42.266 94.414-94.414 0.003906-52.137-42.273-94.414-94.414-94.414zm0 161.4c-36.996 0-66.984-29.988-66.984-66.984 0-36.996 29.988-66.984 66.984-66.984 36.996 0 66.984 29.988 66.984 66.984 0 36.996-29.988 66.984-66.984 66.984zm175.44-80.445v27.121l810.14-0.003907v-27.121zm0 351.2h810.14v-27.121h-810.14zm-175.44-108.07c-52.137 0-94.414 42.273-94.414 94.414 0 52.152 42.277 94.414 94.414 94.414 52.141 0 94.414-42.266 94.414-94.414 0.003906-52.141-42.273-94.414-94.414-94.414zm0 161.4c-36.996 0-66.984-29.988-66.984-66.984s29.988-66.984 66.984-66.984c36.996 0 66.984 29.988 66.984 66.984s-29.988 66.984-66.984 66.984zm175.44 270.75h810.14v-27.121l-810.14 0.003906zm-175.44-108.07c-52.137 0-94.414 42.266-94.414 94.418 0 52.141 42.277 94.414 94.414 94.414 52.141 0 94.414-42.266 94.414-94.414 0.003906-52.152-42.273-94.418-94.414-94.418zm0 161.4c-36.996 0-66.984-29.988-66.984-66.984 0-36.996 29.988-66.984 66.984-66.984 36.996 0 66.984 29.988 66.984 66.984 0 36.996-29.988 66.984-66.984 66.984z" fill-rule="evenodd"/>
</svg>
