  0
SECTION
  2
HEADER
  9
$ACADVER
  1
AC1024
  9
$ACADMAINTVER
 70
     6
  9
$DWGCODEPAGE
  3
UNDEFINED
  9
$INSBASE
 10
0.0
 20
0.0
 30
0.0
  9
$EXTMIN
 10
1.000000000000000E+20
 20
1.000000000000000E+20
 30
1.000000000000000E+20
  9
$EXTMAX
 10
-1.000000000000000E+20
 20
-1.000000000000000E+20
 30
-1.000000000000000E+20
  9
$LIMMIN
 10
0.0
 20
0.0
  9
$LIMMAX
 10
12.0
 20
9.0
  9
$ORTHOMODE
 70
     0
  9
$REGENMODE
 70
     1
  9
$FILLMODE
 70
     1
  9
$QTEXTMODE
 70
     0
  9
$MIRRTEXT
 70
     1
  9
$LTSCALE
 40
1.0
  9
$ATTMODE
 70
     1
  9
$TEXTSIZE
 40
0.2
  9
$TRACEWID
 40
0.05
  9
$TEXTSTYLE
  7
Standard
  9
$CLAYER
  8
0
  9
$CELTYPE
  6
ByLayer
  9
$CECOLOR
 62
   256
  9
$CELTSCALE
 40
1.0
  9
$DISPSILH
 70
     0
  9
$DIMSCALE
 40
1.0
  9
$DIMASZ
 40
0.18
  9
$DIMEXO
 40
0.0625
  9
$DIMDLI
 40
0.38
  9
$DIMRND
 40
0.0
  9
$DIMDLE
 40
0.0
  9
$DIMEXE
 40
0.18
  9
$DIMTP
 40
0.0
  9
$DIMTM
 40
0.0
  9
$DIMTXT
 40
0.18
  9
$DIMCEN
 40
0.09
  9
$DIMTSZ
 40
0.0
  9
$DIMTOL
 70
     0
  9
$DIMLIM
 70
     0
  9
$DIMTIH
 70
     1
  9
$DIMTOH
 70
     1
  9
$DIMSE1
 70
     0
  9
$DIMSE2
 70
     0
  9
$DIMTAD
 70
     0
  9
$DIMZIN
 70
     0
  9
$DIMBLK
  1

  9
$DIMASO
 70
     1
  9
$DIMSHO
 70
     1
  9
$DIMPOST
  1

  9
$DIMAPOST
  1

  9
$DIMALT
 70
     0
  9
$DIMALTD
 70
     2
  9
$DIMALTF
 40
25.4
  9
$DIMLFAC
 40
1.0
  9
$DIMTOFL
 70
     0
  9
$DIMTVP
 40
0.0
  9
$DIMTIX
 70
     0
  9
$DIMSOXD
 70
     0
  9
$DIMSAH
 70
     0
  9
$DIMBLK1
  1

  9
$DIMBLK2
  1

  9
$DIMSTYLE
  2
Standard
  9
$DIMCLRD
 70
     0
  9
$DIMCLRE
 70
     0
  9
$DIMCLRT
 70
     0
  9
$DIMTFAC
 40
1.0
  9
$DIMGAP
 40
0.09
  9
$DIMJUST
 70
     0
  9
$DIMSD1
 70
     0
  9
$DIMSD2
 70
     0
  9
$DIMTOLJ
 70
     1
  9
$DIMTZIN
 70
     0
  9
$DIMALTZ
 70
     0
  9
$DIMALTTZ
 70
     0
  9
$DIMUPT
 70
     0
  9
$DIMDEC
 70
     4
  9
$DIMTDEC
 70
     4
  9
$DIMALTU
 70
     2
  9
$DIMALTTD
 70
     2
  9
$DIMTXSTY
  7
Standard
  9
$DIMAUNIT
 70
     0
  9
$DIMADEC
 70
     0
  9
$DIMALTRND
 40
0.0
  9
$DIMAZIN
 70
     0
  9
$DIMDSEP
 70
    46
  9
$DIMATFIT
 70
     3
  9
$DIMFRAC
 70
     0
  9
$DIMLDRBLK
  1

  9
$DIMLUNIT
 70
     2
  9
$DIMLWD
 70
    -2
  9
$DIMLWE
 70
    -2
  9
$DIMTMOVE
 70
     0
  9
$DIMFXL
 40
1.0
  9
$DIMFXLON
 70
     0
  9
$DIMJOGANG
 40
0.7853981633974483
  9
$DIMTFILL
 70
     0
  9
$DIMTFILLCLR
 70
     0
  9
$DIMARCSYM
 70
     0
  9
$DIMLTYPE
  6

  9
$DIMLTEX1
  6

  9
$DIMLTEX2
  6

  9
$DIMTXTDIRECTION
 70
     0
  9
$LUNITS
 70
     2
  9
$LUPREC
 70
     4
  9
$SKETCHINC
 40
0.1
  9
$FILLETRAD
 40
0.5
  9
$AUNITS
 70
     0
  9
$AUPREC
 70
     0
  9
$MENU
  1
.
  9
$ELEVATION
 40
0.0
  9
$PELEVATION
 40
0.0
  9
$THICKNESS
 40
0.0
  9
$LIMCHECK
 70
     0
  9
$CHAMFERA
 40
0.5
  9
$CHAMFERB
 40
0.5
  9
$CHAMFERC
 40
1.0
  9
$CHAMFERD
 40
0.0
  9
$SKPOLY
 70
     0
  9
$TDCREATE
 40
2457498.014641204
  9
$TDUCREATE
 40
2457498.014641204
  9
$TDUPDATE
 40
2457498.014641204
  9
$TDUUPDATE
 40
2457498.014641204
  9
$TDINDWG
 40
0.0000000116
  9
$TDUSRTIMER
 40
0.0000000116
  9
$USRTIMER
 70
     1
  9
$ANGBASE
 50
0.0
  9
$ANGDIR
 70
     0
  9
$PDMODE
 70
     0
  9
$PDSIZE
 40
0.0
  9
$PLINEWID
 40
0.0
  9
$SPLFRAME
 70
     0
  9
$SPLINETYPE
 70
     6
  9
$SPLINESEGS
 70
     8
  9
$HANDSEED
  5
5B
  9
$SURFTAB1
 70
     6
  9
$SURFTAB2
 70
     6
  9
$SURFTYPE
 70
     6
  9
$SURFU
 70
     6
  9
$SURFV
 70
     6
  9
$UCSBASE
  2

  9
$UCSNAME
  2

  9
$UCSORG
 10
0.0
 20
0.0
 30
0.0
  9
$UCSXDIR
 10
1.0
 20
0.0
 30
0.0
  9
$UCSYDIR
 10
0.0
 20
1.0
 30
0.0
  9
$UCSORTHOREF
  2

  9
$UCSORTHOVIEW
 70
     0
  9
$UCSORGTOP
 10
0.0
 20
0.0
 30
0.0
  9
$UCSORGBOTTOM
 10
0.0
 20
0.0
 30
0.0
  9
$UCSORGLEFT
 10
0.0
 20
0.0
 30
0.0
  9
$UCSORGRIGHT
 10
0.0
 20
0.0
 30
0.0
  9
$UCSORGFRONT
 10
0.0
 20
0.0
 30
0.0
  9
$UCSORGBACK
 10
0.0
 20
0.0
 30
0.0
  9
$PUCSBASE
  2

  9
$PUCSNAME
  2

  9
$PUCSORG
 10
0.0
 20
0.0
 30
0.0
  9
$PUCSXDIR
 10
1.0
 20
0.0
 30
0.0
  9
$PUCSYDIR
 10
0.0
 20
1.0
 30
0.0
  9
$PUCSORTHOREF
  2

  9
$PUCSORTHOVIEW
 70
     0
  9
$PUCSORGTOP
 10
0.0
 20
0.0
 30
0.0
  9
$PUCSORGBOTTOM
 10
0.0
 20
0.0
 30
0.0
  9
$PUCSORGLEFT
 10
0.0
 20
0.0
 30
0.0
  9
$PUCSORGRIGHT
 10
0.0
 20
0.0
 30
0.0
  9
$PUCSORGFRONT
 10
0.0
 20
0.0
 30
0.0
  9
$PUCSORGBACK
 10
0.0
 20
0.0
 30
0.0
  9
$USERI1
 70
     0
  9
$USERI2
 70
     0
  9
$USERI3
 70
     0
  9
$USERI4
 70
     0
  9
$USERI5
 70
     0
  9
$USERR1
 40
0.0
  9
$USERR2
 40
0.0
  9
$USERR3
 40
0.0
  9
$USERR4
 40
0.0
  9
$USERR5
 40
0.0
  9
$WORLDVIEW
 70
     1
  9
$SHADEDGE
 70
     3
  9
$SHADEDIF
 70
    70
  9
$TILEMODE
 70
     1
  9
$MAXACTVP
 70
    64
  9
$PINSBASE
 10
0.0
 20
0.0
 30
0.0
  9
$PLIMCHECK
 70
     0
  9
$PEXTMIN
 10
1.000000000000000E+20
 20
1.000000000000000E+20
 30
1.000000000000000E+20
  9
$PEXTMAX
 10
-1.000000000000000E+20
 20
-1.000000000000000E+20
 30
-1.000000000000000E+20
  9
$PLIMMIN
 10
0.0
 20
0.0
  9
$PLIMMAX
 10
12.0
 20
9.0
  9
$UNITMODE
 70
     0
  9
$VISRETAIN
 70
     1
  9
$PLINEGEN
 70
     0
  9
$PSLTSCALE
 70
     1
  9
$TREEDEPTH
 70
  3020
  9
$CMLSTYLE
  2
Standard
  9
$CMLJUST
 70
     0
  9
$CMLSCALE
 40
1.0
  9
$PROXYGRAPHICS
 70
     1
  9
$MEASUREMENT
 70
     0
  9
$CELWEIGHT
370
    -1
  9
$ENDCAPS
280
     0
  9
$JOINSTYLE
280
     0
  9
$LWDISPLAY
290
     1
  9
$INSUNITS
 70
     1
  9
$HYPERLINKBASE
  1

  9
$STYLESHEET
  1

  9
$XEDIT
290
     1
  9
$CEPSNTYPE
380
     0
  9
$PSTYLEMODE
290
     1
  9
$FINGERPRINTGUID
  2
{D42EE1C6-AFC8-325D-4827-066A616BD520}
  9
$VERSIONGUID
  2
{FAEB1C32-E019-11D5-929B-00C0DF256EC4}
  9
$EXTNAMES
290
     1
  9
$PSVPSCALE
 40
0.0
  9
$OLESTARTUP
290
     0
  9
$SORTENTS
280
   127
  9
$INDEXCTL
280
     0
  9
$HIDETEXT
280
     1
  9
$XCLIPFRAME
280
     2
  9
$HALOGAP
280
     0
  9
$OBSCOLOR
 70
   257
  9
$OBSLTYPE
280
     0
  9
$INTERSECTIONDISPLAY
280
     0
  9
$INTERSECTIONCOLOR
 70
   257
  9
$DIMASSOC
280
     2
  9
$PROJECTNAME
  1

  9
$CAMERADISPLAY
290
     0
  9
$LENSLENGTH
 40
50.0
  9
$CAMERAHEIGHT
 40
0.0
  9
$STEPSPERSEC
 40
2.0
  9
$STEPSIZE
 40
6.0
  9
$3DDWFPREC
 40
2.0
  9
$PSOLWIDTH
 40
0.25
  9
$PSOLHEIGHT
 40
4.0
  9
$LOFTANG1
 40
1.570796326794897
  9
$LOFTANG2
 40
1.570796326794897
  9
$LOFTMAG1
 40
0.0
  9
$LOFTMAG2
 40
0.0
  9
$LOFTPARAM
 70
     7
  9
$LOFTNORMALS
280
     1
  9
$LATITUDE
 40
37.795
  9
$LONGITUDE
 40
-122.394
  9
$NORTHDIRECTION
 40
0.0
  9
$TIMEZONE
 70
 -8000
  9
$LIGHTGLYPHDISPLAY
280
     1
  9
$TILEMODELIGHTSYNCH
280
     1
  9
$CMATERIAL
347
3C
  9
$SOLIDHIST
280
     1
  9
$SHOWHIST
280
     1
  9
$DWFFRAME
280
     2
  9
$DGNFRAME
280
     2
  9
$REALWORLDSCALE
290
     1
  9
$INTERFERECOLOR
 62
   256
  9
$CSHADOW
280
     0
  9
$SHADOWPLANELOCATION
 40
0.0
  0
ENDSEC
  0
SECTION
  2
CLASSES
  0
CLASS
  1
ACDBDICTIONARYWDFLT
  2
AcDbDictionaryWithDefault
  3
ObjectDBX Classes
 90
        0
 91
        4
280
     0
281
     0
  0
CLASS
  1
VISUALSTYLE
  2
AcDbVisualStyle
  3
ObjectDBX Classes
 90
     4095
 91
        4
280
     0
281
     0
  0
CLASS
  1
MATERIAL
  2
AcDbMaterial
  3
ObjectDBX Classes
 90
     1153
 91
        4
280
     0
281
     0
  0
CLASS
  1
SUN
  2
AcDbSun
  3
SCENEOE
 90
     1024
 91
        4
280
     0
281
     0
  0
ENDSEC
  0
SECTION
  2
TABLES
  0
TABLE
  2
VPORT
  5
8
330
0
100
AcDbSymbolTable
 70
     1
  0
VPORT
  5
29
330
8
100
AcDbSymbolTableRecord
100
AcDbViewportTableRecord
  2
*Active
 70
     0
 10
0.0
 20
0.0
 11
1.0
 21
1.0
 12
0.0
 22
0.0
 13
0.0
 23
0.0
 14
0.5
 24
0.5
 15
0.5
 25
0.5
 16
0.0
 26
0.0
 36
1.0
 17
2.416666666666667
 27
1.416666666666667
 37
0.0
 40
2.819444444444444
 41
1.719211822660099
 42
50.0
 43
0.0
 44
0.0
 50
0.0
 51
0.0
 71
     0
 72
   100
 73
     1
 74
     3
 75
     0
 76
     0
 77
     0
 78
     0
281
     0
 65
     1
110
0.0
120
0.0
130
0.0
111
1.0
121
0.0
131
0.0
112
0.0
122
1.0
132
0.0
 79
     0
146
0.0
 60
     3
 61
     5
292
     1
282
     1
141
0.0
142
0.0
 63
   250
361
3F
  0
ENDTAB
  0
TABLE
  2
LTYPE
  5
5
330
0
100
AcDbSymbolTable
 70
     1
  0
LTYPE
  5
14
330
5
100
AcDbSymbolTableRecord
100
AcDbLinetypeTableRecord
  2
ByBlock
 70
     0
  3

 72
    65
 73
     0
 40
0.0
  0
LTYPE
  5
15
330
5
100
AcDbSymbolTableRecord
100
AcDbLinetypeTableRecord
  2
ByLayer
 70
     0
  3

 72
    65
 73
     0
 40
0.0
  0
LTYPE
  5
16
330
5
100
AcDbSymbolTableRecord
100
AcDbLinetypeTableRecord
  2
Continuous
 70
     0
  3
Solid line
 72
    65
 73
     0
 40
0.0
  0
ENDTAB
  0
TABLE
  2
LAYER
  5
2
330
0
100
AcDbSymbolTable
 70
     2
  0
LAYER
  5
10
330
2
100
AcDbSymbolTableRecord
100
AcDbLayerTableRecord
  2
0
 70
     0
 62
     7
  6
Continuous
370
    -3
390
F
347
3E
  0
LAYER
  5
40
330
2
100
AcDbSymbolTableRecord
100
AcDbLayerTableRecord
  2
Layer 1
 70
     0
 62
     7
  6
Continuous
370
    -3
390
F
347
3E
  0
ENDTAB
  0
TABLE
  2
STYLE
  5
3
330
0
100
AcDbSymbolTable
 70
     1
  0
STYLE
  5
11
330
3
100
AcDbSymbolTableRecord
100
AcDbTextStyleTableRecord
  2
Standard
 70
     0
 40
0.0
 41
1.0
 50
0.0
 71
     0
 42
0.2
  3
txt
  4

  0
ENDTAB
  0
TABLE
  2
VIEW
  5
6
330
0
100
AcDbSymbolTable
 70
     0
  0
ENDTAB
  0
TABLE
  2
UCS
  5
7
330
0
100
AcDbSymbolTable
 70
     0
  0
ENDTAB
  0
TABLE
  2
APPID
  5
9
330
0
100
AcDbSymbolTable
 70
     1
  0
APPID
  5
12
330
9
100
AcDbSymbolTableRecord
100
AcDbRegAppTableRecord
  2
ACAD
 70
     0
  0
ENDTAB
  0
TABLE
  2
DIMSTYLE
  5
A
330
0
100
AcDbSymbolTable
 70
     1
100
AcDbDimStyleTable
  0
DIMSTYLE
105
27
330
A
100
AcDbSymbolTableRecord
100
AcDbDimStyleTableRecord
  2
Standard
 70
     0
178
     0
340
11
  0
ENDTAB
  0
TABLE
  2
BLOCK_RECORD
  5
1
330
0
100
AcDbSymbolTable
 70
     5
  0
BLOCK_RECORD
  5
1F
330
1
100
AcDbSymbolTableRecord
100
AcDbBlockTableRecord
  2
*Model_Space
340
22
 70
     0
280
     1
281
     0
  0
BLOCK_RECORD
  5
1B
330
1
100
AcDbSymbolTableRecord
100
AcDbBlockTableRecord
  2
*Paper_Space
340
1E
 70
     0
280
     1
281
     0
  0
BLOCK_RECORD
  5
23
330
1
100
AcDbSymbolTableRecord
100
AcDbBlockTableRecord
  2
*Paper_Space0
340
26
 70
     0
280
     1
281
     0
  0
BLOCK_RECORD
  5
41
330
1
100
AcDbSymbolTableRecord
100
AcDbBlockTableRecord
  2
block 2
340
0
102
{BLKREFS
331
42
102
}
 70
     0
280
     1
281
     0
  0
BLOCK_RECORD
  5
47
330
1
100
AcDbSymbolTableRecord
100
AcDbBlockTableRecord
  2
block 3
340
0
102
{BLKREFS
331
48
102
}
 70
     0
280
     1
281
     0
  0
BLOCK_RECORD
  5
4D
330
1
100
AcDbSymbolTableRecord
100
AcDbBlockTableRecord
  2
block 4
340
0
102
{BLKREFS
331
4E
102
}
 70
     0
280
     1
281
     0
  0
BLOCK_RECORD
  5
53
330
1
100
AcDbSymbolTableRecord
100
AcDbBlockTableRecord
  2
block 5
340
0
102
{BLKREFS
331
54
102
}
 70
     0
280
     1
281
     0
  0
ENDTAB
  0
ENDSEC
  0
SECTION
  2
BLOCKS
  0
BLOCK
  5
20
330
1F
100
AcDbEntity
  8
0
100
AcDbBlockBegin
  2
*Model_Space
 70
     0
 10
0.0
 20
0.0
 30
0.0
  3
*Model_Space
  1

  0
ENDBLK
  5
21
330
1F
100
AcDbEntity
  8
0
100
AcDbBlockEnd
  0
BLOCK
  5
1C
330
1B
100
AcDbEntity
 67
     1
  8
0
100
AcDbBlockBegin
  2
*Paper_Space
 70
     0
 10
0.0
 20
0.0
 30
0.0
  3
*Paper_Space
  1

  0
ENDBLK
  5
1D
330
1B
100
AcDbEntity
 67
     1
  8
0
100
AcDbBlockEnd
  0
BLOCK
  5
24
330
23
100
AcDbEntity
  8
0
100
AcDbBlockBegin
  2
*Paper_Space0
 70
     0
 10
0.0
 20
0.0
 30
0.0
  3
*Paper_Space0
  1

  0
ENDBLK
  5
25
330
23
100
AcDbEntity
  8
0
100
AcDbBlockEnd
  0
BLOCK
  5
43
330
41
100
AcDbEntity
  8
0
100
AcDbBlockBegin
  2
block 2
 70
     0
 10
0.0
 20
0.0
 30
0.0
  3
block 2
  1

  0
SPLINE
  5
45
330
41
100
AcDbEntity
  8
Layer 1
370
     0
100
AcDbSpline
210
0.0
220
0.0
230
1.0
 70
    11
 71
     3
 72
    44
 73
    40
 74
     0
 42
0.0000000001
 43
0.0000000001
 12
1.0
 22
0.0
 32
0.0
 13
1.0
 23
0.0
 33
0.0
 40
0.0
 40
0.0
 40
0.0
 40
0.0
 40
1.0
 40
1.0
 40
1.0
 40
2.0
 40
2.0
 40
2.0
 40
3.0
 40
3.0
 40
3.0
 40
4.0
 40
4.0
 40
4.0
 40
5.0
 40
5.0
 40
5.0
 40
6.0
 40
6.0
 40
6.0
 40
7.0
 40
7.0
 40
7.0
 40
8.0
 40
8.0
 40
8.0
 40
9.0
 40
9.0
 40
9.0
 40
10.0
 40
10.0
 40
10.0
 40
11.0
 40
11.0
 40
11.0
 40
12.0
 40
12.0
 40
12.0
 40
13.0
 40
13.0
 40
13.0
 40
13.0
 10
1.889166666666673
 20
2.347916666666669
 30
0.0
 10
2.038055555555553
 20
2.508055555555555
 30
0.0
 10
2.27902777777778
 20
2.549861111111113
 30
0.0
 10
2.485138888888893
 20
2.498472222222226
 30
0.0
 10
2.555972222222219
 20
2.481944444444442
 30
0.0
 10
2.624166666666661
 20
2.436805555555553
 30
0.0
 10
2.699583333333332
 20
2.45569444444445
 30
0.0
 10
2.845416666666665
 20
2.484861111111109
 30
0.0
 10
3.000416666666663
 20
2.486250000000003
 30
0.0
 10
3.140833333333338
 20
2.432500000000005
 30
0.0
 10
3.271388888888888
 20
2.381249999999997
 30
0.0
 10
3.384444444444448
 20
2.284305555555559
 30
0.0
 10
3.453194444444446
 20
2.161944444444442
 30
0.0
 10
3.496527777777778
 20
2.080555555555558
 30
0.0
 10
3.508194444444446
 20
1.964999999999994
 30
0.0
 10
3.438333333333339
 20
1.894861111111115
 30
0.0
 10
3.379999999999995
 20
1.834861111111106
 30
0.0
 10
3.291111111111111
 20
1.837083333333339
 30
0.0
 10
3.216944444444443
 20
1.81138888888889
 30
0.0
 10
3.163749999999999
 20
1.79430555555555
 30
0.0
 10
3.135972222222222
 20
1.742222222222217
 30
0.0
 10
3.106388888888887
 20
1.699166666666668
 30
0.0
 10
3.023611111111109
 20
1.698888888888885
 30
0.0
 10
2.941111111111114
 20
1.693333333333334
 30
0.0
 10
2.858611111111107
 20
1.686805555555553
 30
0.0
 10
2.836805555555555
 20
1.750416666666663
 30
0.0
 10
2.818611111111105
 20
1.818611111111105
 30
0.0
 10
2.77263888888889
 20
1.869861111111113
 30
0.0
 10
2.712083333333339
 20
1.934444444444441
 30
0.0
 10
2.626666666666665
 20
1.970833333333328
 30
0.0
 10
2.540416666666665
 20
1.985000000000001
 30
0.0
 10
2.462777777777774
 20
1.997638888888888
 30
0.0
 10
2.384583333333328
 20
1.983472222222228
 30
0.0
 10
2.307916666666668
 20
1.97208333333333
 30
0.0
 10
2.249166666666661
 20
2.047916666666664
 30
0.0
 10
2.193194444444442
 20
2.127083333333328
 30
0.0
 10
2.120000000000005
 20
2.189861111111112
 30
0.0
 10
2.051111111111115
 20
2.253611111111114
 30
0.0
 10
1.966111111111116
 20
2.295416666666672
 30
0.0
 10
1.889166666666673
 20
2.347916666666669
 30
0.0
  0
HATCH
  5
46
330
41
100
AcDbEntity
  8
Layer 1
 62
   133
420
  4640207
100
AcDbHatch
 10
0.0
 20
0.0
 30
0.0
210
0.0
220
0.0
230
1.0
  2
SOLID
 70
     1
 71
     0
 91
        1
 92
        1
 93
        1
 72
     4
 94
        3
 73
     0
 74
     1
 95
       44
 96
       40
 40
0.0
 40
0.0
 40
0.0
 40
0.0
 40
1.0
 40
1.0
 40
1.0
 40
2.0
 40
2.0
 40
2.0
 40
3.0
 40
3.0
 40
3.0
 40
4.0
 40
4.0
 40
4.0
 40
5.0
 40
5.0
 40
5.0
 40
6.0
 40
6.0
 40
6.0
 40
7.0
 40
7.0
 40
7.0
 40
8.0
 40
8.0
 40
8.0
 40
9.0
 40
9.0
 40
9.0
 40
10.0
 40
10.0
 40
10.0
 40
11.0
 40
11.0
 40
11.0
 40
12.0
 40
12.0
 40
12.0
 40
13.0
 40
13.0
 40
13.0
 40
13.0
 10
1.889166666666673
 20
2.347916666666669
 10
2.038055555555553
 20
2.508055555555555
 10
2.27902777777778
 20
2.549861111111113
 10
2.485138888888893
 20
2.498472222222226
 10
2.555972222222219
 20
2.481944444444442
 10
2.624166666666661
 20
2.436805555555553
 10
2.699583333333332
 20
2.45569444444445
 10
2.845416666666665
 20
2.484861111111109
 10
3.000416666666663
 20
2.486250000000003
 10
3.140833333333338
 20
2.432500000000005
 10
3.271388888888888
 20
2.381249999999997
 10
3.384444444444448
 20
2.284305555555559
 10
3.453194444444446
 20
2.161944444444442
 10
3.496527777777778
 20
2.080555555555558
 10
3.508194444444446
 20
1.964999999999994
 10
3.438333333333339
 20
1.894861111111115
 10
3.379999999999995
 20
1.834861111111106
 10
3.291111111111111
 20
1.837083333333339
 10
3.216944444444443
 20
1.81138888888889
 10
3.163749999999999
 20
1.79430555555555
 10
3.135972222222222
 20
1.742222222222217
 10
3.106388888888887
 20
1.699166666666668
 10
3.023611111111109
 20
1.698888888888885
 10
2.941111111111114
 20
1.693333333333334
 10
2.858611111111107
 20
1.686805555555553
 10
2.836805555555555
 20
1.750416666666663
 10
2.818611111111105
 20
1.818611111111105
 10
2.77263888888889
 20
1.869861111111113
 10
2.712083333333339
 20
1.934444444444441
 10
2.626666666666665
 20
1.970833333333328
 10
2.540416666666665
 20
1.985000000000001
 10
2.462777777777774
 20
1.997638888888888
 10
2.384583333333328
 20
1.983472222222228
 10
2.307916666666668
 20
1.97208333333333
 10
2.249166666666661
 20
2.047916666666664
 10
2.193194444444442
 20
2.127083333333328
 10
2.120000000000005
 20
2.189861111111112
 10
2.051111111111115
 20
2.253611111111114
 10
1.966111111111116
 20
2.295416666666672
 10
1.889166666666673
 20
2.347916666666669
 97
        0
 97
        0
 75
     2
 76
     1
 98
        0
  0
ENDBLK
  5
44
330
41
100
AcDbEntity
  8
0
100
AcDbBlockEnd
  0
BLOCK
  5
49
330
47
100
AcDbEntity
  8
0
100
AcDbBlockBegin
  2
block 3
 70
     0
 10
0.0
 20
0.0
 30
0.0
  3
block 3
  1

  0
SPLINE
  5
4B
330
47
100
AcDbEntity
  8
Layer 1
370
     0
100
AcDbSpline
210
0.0
220
0.0
230
1.0
 70
    11
 71
     3
 72
    56
 73
    52
 74
     0
 42
0.0000000001
 43
0.0000000001
 12
1.0
 22
0.0
 32
0.0
 13
1.0
 23
0.0
 33
0.0
 40
0.0
 40
0.0
 40
0.0
 40
0.0
 40
1.0
 40
1.0
 40
1.0
 40
2.0
 40
2.0
 40
2.0
 40
3.0
 40
3.0
 40
3.0
 40
4.0
 40
4.0
 40
4.0
 40
5.0
 40
5.0
 40
5.0
 40
6.0
 40
6.0
 40
6.0
 40
7.0
 40
7.0
 40
7.0
 40
8.0
 40
8.0
 40
8.0
 40
9.0
 40
9.0
 40
9.0
 40
10.0
 40
10.0
 40
10.0
 40
11.0
 40
11.0
 40
11.0
 40
12.0
 40
12.0
 40
12.0
 40
13.0
 40
13.0
 40
13.0
 40
14.0
 40
14.0
 40
14.0
 40
15.0
 40
15.0
 40
15.0
 40
16.0
 40
16.0
 40
16.0
 40
17.0
 40
17.0
 40
17.0
 40
17.0
 10
1.657500000000002
 20
2.272777777777782
 30
0.0
 10
1.751527777777773
 20
2.301805555555549
 30
0.0
 10
1.849166666666671
 20
2.271111111111117
 30
0.0
 10
1.930138888888892
 20
2.221944444444438
 30
0.0
 10
2.051527777777778
 20
2.153472222222224
 30
0.0
 10
2.152361111111115
 20
2.051805555555549
 30
0.0
 10
2.22430555555555
 20
1.932916666666668
 30
0.0
 10
2.244027777777774
 20
1.908055555555557
 30
0.0
 10
2.264305555555552
 20
1.860833333333327
 30
0.0
 10
2.303333333333335
 20
1.875555555555555
 30
0.0
 10
2.400138888888894
 20
1.901111111111113
 30
0.0
 10
2.50555555555555
 20
1.915416666666665
 30
0.0
 10
2.602083333333338
 20
1.88055555555555
 30
0.0
 10
2.670972222222228
 20
1.856111111111115
 30
0.0
 10
2.736527777777774
 20
1.804027777777782
 30
0.0
 10
2.754583333333332
 20
1.730277777777777
 30
0.0
 10
2.775000000000003
 20
1.627777777777775
 30
0.0
 10
2.746111111111115
 20
1.514305555555552
 30
0.0
 10
2.671666666666662
 20
1.439444444444449
 30
0.0
 10
2.601527777777783
 20
1.368750000000002
 30
0.0
 10
2.503888888888885
 20
1.334166666666672
 30
0.0
 10
2.408611111111112
 20
1.313055555555555
 30
0.0
 10
2.286249999999995
 20
1.28458333333333
 30
0.0
 10
2.157638888888894
 20
1.305416666666664
 30
0.0
 10
2.036527777777779
 20
1.26930555555556
 30
0.0
 10
1.900555555555558
 20
1.230555555555561
 30
0.0
 10
1.771666666666672
 20
1.134027777777773
 30
0.0
 10
1.730277777777777
 20
0.9940277777777737
 30
0.0
 10
1.709444444444443
 20
0.9287499999999984
 30
0.0
 10
1.726388888888891
 20
0.8548611111111136
 30
0.0
 10
1.694166666666661
 20
0.7930555555555605
 30
0.0
 10
1.618750000000002
 20
0.7676388888888949
 30
0.0
 10
1.536944444444442
 20
0.7718055555555515
 30
0.0
 10
1.458472222222225
 20
0.7737500000000005
 30
0.0
 10
1.321388888888893
 20
0.7748611111111106
 30
0.0
 10
1.188472222222218
 20
0.8445833333333388
 30
0.0
 10
1.102916666666665
 20
0.9505555555555499
 30
0.0
 10
1.032638888888894
 20
1.04097222222222
 30
0.0
 10
0.9722222222222222
 20
1.146111111111117
 30
0.0
 10
0.9683333333333368
 20
1.263472222222226
 30
0.0
 10
0.9522222222222277
 20
1.418055555555561
 30
0.0
 10
0.9890277777777783
 20
1.581527777777776
 30
0.0
 10
1.087777777777774
 20
1.703888888888893
 30
0.0
 10
1.119861111111113
 20
1.745277777777776
 30
0.0
 10
1.166111111111112
 20
1.773888888888892
 30
0.0
 10
1.195416666666663
 20
1.817361111111116
 30
0.0
 10
1.219444444444447
 20
1.869722222222221
 30
0.0
 10
1.224722222222226
 20
1.929722222222217
 30
0.0
 10
1.256805555555552
 20
1.978611111111112
 30
0.0
 10
1.347916666666669
 20
2.121111111111115
 30
0.0
 10
1.489861111111117
 20
2.236527777777774
 30
0.0
 10
1.657500000000002
 20
2.272777777777782
 30
0.0
  0
HATCH
  5
4C
330
47
100
AcDbEntity
  8
Layer 1
 62
   121
420
 11267544
100
AcDbHatch
 10
0.0
 20
0.0
 30
0.0
210
0.0
220
0.0
230
1.0
  2
SOLID
 70
     1
 71
     0
 91
        1
 92
        1
 93
        1
 72
     4
 94
        3
 73
     0
 74
     1
 95
       56
 96
       52
 40
0.0
 40
0.0
 40
0.0
 40
0.0
 40
1.0
 40
1.0
 40
1.0
 40
2.0
 40
2.0
 40
2.0
 40
3.0
 40
3.0
 40
3.0
 40
4.0
 40
4.0
 40
4.0
 40
5.0
 40
5.0
 40
5.0
 40
6.0
 40
6.0
 40
6.0
 40
7.0
 40
7.0
 40
7.0
 40
8.0
 40
8.0
 40
8.0
 40
9.0
 40
9.0
 40
9.0
 40
10.0
 40
10.0
 40
10.0
 40
11.0
 40
11.0
 40
11.0
 40
12.0
 40
12.0
 40
12.0
 40
13.0
 40
13.0
 40
13.0
 40
14.0
 40
14.0
 40
14.0
 40
15.0
 40
15.0
 40
15.0
 40
16.0
 40
16.0
 40
16.0
 40
17.0
 40
17.0
 40
17.0
 40
17.0
 10
1.657500000000002
 20
2.272777777777782
 10
1.751527777777773
 20
2.301805555555549
 10
1.849166666666671
 20
2.271111111111117
 10
1.930138888888892
 20
2.221944444444438
 10
2.051527777777778
 20
2.153472222222224
 10
2.152361111111115
 20
2.051805555555549
 10
2.22430555555555
 20
1.932916666666668
 10
2.244027777777774
 20
1.908055555555557
 10
2.264305555555552
 20
1.860833333333327
 10
2.303333333333335
 20
1.875555555555555
 10
2.400138888888894
 20
1.901111111111113
 10
2.50555555555555
 20
1.915416666666665
 10
2.602083333333338
 20
1.88055555555555
 10
2.670972222222228
 20
1.856111111111115
 10
2.736527777777774
 20
1.804027777777782
 10
2.754583333333332
 20
1.730277777777777
 10
2.775000000000003
 20
1.627777777777775
 10
2.746111111111115
 20
1.514305555555552
 10
2.671666666666662
 20
1.439444444444449
 10
2.601527777777783
 20
1.368750000000002
 10
2.503888888888885
 20
1.334166666666672
 10
2.408611111111112
 20
1.313055555555555
 10
2.286249999999995
 20
1.28458333333333
 10
2.157638888888894
 20
1.305416666666664
 10
2.036527777777779
 20
1.26930555555556
 10
1.900555555555558
 20
1.230555555555561
 10
1.771666666666672
 20
1.134027777777773
 10
1.730277777777777
 20
0.9940277777777737
 10
1.709444444444443
 20
0.9287499999999984
 10
1.726388888888891
 20
0.8548611111111136
 10
1.694166666666661
 20
0.7930555555555605
 10
1.618750000000002
 20
0.7676388888888949
 10
1.536944444444442
 20
0.7718055555555515
 10
1.458472222222225
 20
0.7737500000000005
 10
1.321388888888893
 20
0.7748611111111106
 10
1.188472222222218
 20
0.8445833333333388
 10
1.102916666666665
 20
0.9505555555555499
 10
1.032638888888894
 20
1.04097222222222
 10
0.9722222222222222
 20
1.146111111111117
 10
0.9683333333333368
 20
1.263472222222226
 10
0.9522222222222277
 20
1.418055555555561
 10
0.9890277777777783
 20
1.581527777777776
 10
1.087777777777774
 20
1.703888888888893
 10
1.119861111111113
 20
1.745277777777776
 10
1.166111111111112
 20
1.773888888888892
 10
1.195416666666663
 20
1.817361111111116
 10
1.219444444444447
 20
1.869722222222221
 10
1.224722222222226
 20
1.929722222222217
 10
1.256805555555552
 20
1.978611111111112
 10
1.347916666666669
 20
2.121111111111115
 10
1.489861111111117
 20
2.236527777777774
 10
1.657500000000002
 20
2.272777777777782
 97
        0
 97
        0
 75
     2
 76
     1
 98
        0
  0
ENDBLK
  5
4A
330
47
100
AcDbEntity
  8
0
100
AcDbBlockEnd
  0
BLOCK
  5
4F
330
4D
100
AcDbEntity
  8
0
100
AcDbBlockBegin
  2
block 4
 70
     0
 10
0.0
 20
0.0
 30
0.0
  3
block 4
  1

  0
SPLINE
  5
51
330
4D
100
AcDbEntity
  8
Layer 1
370
     0
100
AcDbSpline
210
0.0
220
0.0
230
1.0
 70
    11
 71
     3
 72
    26
 73
    22
 74
     0
 42
0.0000000001
 43
0.0000000001
 12
1.0
 22
0.0
 32
0.0
 13
1.0
 23
0.0
 33
0.0
 40
0.0
 40
0.0
 40
0.0
 40
0.0
 40
1.0
 40
1.0
 40
1.0
 40
2.0
 40
2.0
 40
2.0
 40
3.0
 40
3.0
 40
3.0
 40
4.0
 40
4.0
 40
4.0
 40
5.0
 40
5.0
 40
5.0
 40
6.0
 40
6.0
 40
6.0
 40
7.0
 40
7.0
 40
7.0
 40
7.0
 10
3.582638888888886
 20
2.044999999999997
 30
0.0
 10
3.767638888888895
 20
1.932916666666668
 30
0.0
 10
3.908055555555557
 20
1.74138888888889
 30
0.0
 10
3.936111111111106
 20
1.524444444444447
 30
0.0
 10
3.950138888888887
 20
1.380277777777779
 30
0.0
 10
3.939027777777773
 20
1.230277777777777
 30
0.0
 10
3.877361111111112
 20
1.097500000000006
 30
0.0
 10
3.785555555555561
 20
1.161111111111116
 30
0.0
 10
3.67888888888889
 20
1.197361111111112
 30
0.0
 10
3.56805555555555
 20
1.207222222222223
 30
0.0
 10
3.539444444444446
 20
1.312777777777784
 30
0.0
 10
3.509583333333328
 20
1.422222222222217
 30
0.0
 10
3.43972222222222
 20
1.509166666666665
 30
0.0
 10
3.387083333333332
 20
1.581388888888884
 30
0.0
 10
3.307083333333328
 20
1.624583333333337
 30
0.0
 10
3.233055555555552
 20
1.670972222222228
 30
0.0
 10
3.286666666666671
 20
1.768750000000005
 30
0.0
 10
3.416666666666667
 20
1.754861111111116
 30
0.0
 10
3.489444444444441
 20
1.829861111111111
 30
0.0
 10
3.551944444444441
 20
1.88361111111111
 30
0.0
 10
3.564861111111112
 20
1.969027777777784
 30
0.0
 10
3.582638888888886
 20
2.044999999999997
 30
0.0
  0
HATCH
  5
52
330
4D
100
AcDbEntity
  8
Layer 1
 62
   145
420
  4031656
100
AcDbHatch
 10
0.0
 20
0.0
 30
0.0
210
0.0
220
0.0
230
1.0
  2
SOLID
 70
     1
 71
     0
 91
        1
 92
        1
 93
        1
 72
     4
 94
        3
 73
     0
 74
     1
 95
       26
 96
       22
 40
0.0
 40
0.0
 40
0.0
 40
0.0
 40
1.0
 40
1.0
 40
1.0
 40
2.0
 40
2.0
 40
2.0
 40
3.0
 40
3.0
 40
3.0
 40
4.0
 40
4.0
 40
4.0
 40
5.0
 40
5.0
 40
5.0
 40
6.0
 40
6.0
 40
6.0
 40
7.0
 40
7.0
 40
7.0
 40
7.0
 10
3.582638888888886
 20
2.044999999999997
 10
3.767638888888895
 20
1.932916666666668
 10
3.908055555555557
 20
1.74138888888889
 10
3.936111111111106
 20
1.524444444444447
 10
3.950138888888887
 20
1.380277777777779
 10
3.939027777777773
 20
1.230277777777777
 10
3.877361111111112
 20
1.097500000000006
 10
3.785555555555561
 20
1.161111111111116
 10
3.67888888888889
 20
1.197361111111112
 10
3.56805555555555
 20
1.207222222222223
 10
3.539444444444446
 20
1.312777777777784
 10
3.509583333333328
 20
1.422222222222217
 10
3.43972222222222
 20
1.509166666666665
 10
3.387083333333332
 20
1.581388888888884
 10
3.307083333333328
 20
1.624583333333337
 10
3.233055555555552
 20
1.670972222222228
 10
3.286666666666671
 20
1.768750000000005
 10
3.416666666666667
 20
1.754861111111116
 10
3.489444444444441
 20
1.829861111111111
 10
3.551944444444441
 20
1.88361111111111
 10
3.564861111111112
 20
1.969027777777784
 10
3.582638888888886
 20
2.044999999999997
 97
        0
 97
        0
 75
     2
 76
     1
 98
        0
  0
ENDBLK
  5
50
330
4D
100
AcDbEntity
  8
0
100
AcDbBlockEnd
  0
BLOCK
  5
55
330
53
100
AcDbEntity
  8
0
100
AcDbBlockBegin
  2
block 5
 70
     0
 10
0.0
 20
0.0
 30
0.0
  3
block 5
  1

  0
SPLINE
  5
57
330
53
100
AcDbEntity
  8
Layer 1
370
     0
100
AcDbSpline
210
0.0
220
0.0
230
1.0
 70
    11
 71
     3
 72
    86
 73
    82
 74
     0
 42
0.0000000001
 43
0.0000000001
 12
1.0
 22
0.0
 32
0.0
 13
1.0
 23
0.0
 33
0.0
 40
0.0
 40
0.0
 40
0.0
 40
0.0
 40
1.0
 40
1.0
 40
1.0
 40
2.0
 40
2.0
 40
2.0
 40
3.0
 40
3.0
 40
3.0
 40
4.0
 40
4.0
 40
4.0
 40
5.0
 40
5.0
 40
5.0
 40
6.0
 40
6.0
 40
6.0
 40
7.0
 40
7.0
 40
7.0
 40
8.0
 40
8.0
 40
8.0
 40
9.0
 40
9.0
 40
9.0
 40
10.0
 40
10.0
 40
10.0
 40
11.0
 40
11.0
 40
11.0
 40
12.0
 40
12.0
 40
12.0
 40
13.0
 40
13.0
 40
13.0
 40
14.0
 40
14.0
 40
14.0
 40
15.0
 40
15.0
 40
15.0
 40
16.0
 40
16.0
 40
16.0
 40
17.0
 40
17.0
 40
17.0
 40
18.0
 40
18.0
 40
18.0
 40
19.0
 40
19.0
 40
19.0
 40
20.0
 40
20.0
 40
20.0
 40
21.0
 40
21.0
 40
21.0
 40
22.0
 40
22.0
 40
22.0
 40
23.0
 40
23.0
 40
23.0
 40
24.0
 40
24.0
 40
24.0
 40
25.0
 40
25.0
 40
25.0
 40
26.0
 40
26.0
 40
26.0
 40
27.0
 40
27.0
 40
27.0
 40
27.0
 10
2.857499999999997
 20
1.588055555555558
 30
0.0
 10
2.958472222222225
 20
1.622361111111116
 30
0.0
 10
3.071805555555557
 20
1.615138888888888
 30
0.0
 10
3.174583333333329
 20
1.591249999999996
 30
0.0
 10
3.349583333333334
 20
1.546527777777783
 30
0.0
 10
3.458055555555549
 20
1.370416666666668
 30
0.0
 10
3.474583333333334
 20
1.198611111111114
 30
0.0
 10
3.408055555555557
 20
1.154305555555551
 30
0.0
 10
3.334861111111106
 20
1.108194444444444
 30
0.0
 10
3.302083333333333
 20
1.031666666666663
 30
0.0
 10
3.275138888888894
 20
0.9683333333333368
 30
0.0
 10
3.270694444444441
 20
0.8913888888888929
 30
0.0
 10
3.300138888888884
 20
0.8281944444444459
 30
0.0
 10
3.311111111111106
 20
0.800000000000005
 30
0.0
 10
3.345555555555557
 20
0.795555555555552
 30
0.0
 10
3.370138888888884
 20
0.8080555555555595
 30
0.0
 10
3.389305555555552
 20
0.8463888888888833
 30
0.0
 10
3.37277777777778
 20
0.8904166666666621
 30
0.0
 10
3.374305555555553
 20
0.9308333333333394
 30
0.0
 10
3.366527777777782
 20
1.008472222222218
 30
0.0
 10
3.42888888888889
 20
1.074166666666669
 30
0.0
 10
3.497083333333332
 20
1.100277777777781
 30
0.0
 10
3.594027777777784
 20
1.137222222222224
 30
0.0
 10
3.702638888888891
 20
1.104166666666667
 30
0.0
 10
3.786944444444442
 20
1.051249999999994
 30
0.0
 10
3.82319444444445
 20
1.026527777777776
 30
0.0
 10
3.866249999999998
 20
0.9936111111111106
 30
0.0
 10
3.864027777777778
 20
0.9447222222222282
 30
0.0
 10
3.860972222222219
 20
0.8341666666666722
 30
0.0
 10
3.822916666666667
 20
0.7230555555555611
 30
0.0
 10
3.750555555555555
 20
0.638611111111105
 30
0.0
 10
3.681388888888894
 20
0.5561111111111106
 30
0.0
 10
3.588055555555557
 20
0.498055555555551
 30
0.0
 10
3.49138888888889
 20
0.4527777777777828
 30
0.0
 10
3.43333333333333
 20
0.425000000000005
 30
0.0
 10
3.368750000000002
 20
0.4124999999999974
 30
0.0
 10
3.311944444444445
 20
0.3819444444444444
 30
0.0
 10
3.268055555555558
 20
0.3563888888888869
 30
0.0
 10
3.280555555555553
 20
0.2952777777777808
 30
0.0
 10
3.283888888888883
 20
0.2530555555555591
 30
0.0
 10
3.29527777777778
 20
0.1681944444444399
 30
0.0
 10
3.370138888888884
 20
0.1169444444444454
 30
0.0
 10
3.435416666666672
 20
0.0727777777777747
 30
0.0
 10
3.412638888888889
 20
0.0555555555555556
 30
0.0
 10
3.391527777777772
 20
0.03125
 30
0.0
 10
3.360416666666664
 20
0.0313888888888919
 30
0.0
 10
3.279444444444443
 20
0.0202777777777783
 30
0.0
 10
3.199583333333332
 20
0.0484722222222192
 30
0.0
 10
3.130833333333334
 20
0.0893055555555596
 30
0.0
 10
3.024027777777772
 20
0.1490277777777717
 30
0.0
 10
2.927361111111117
 20
0.2315277777777788
 30
0.0
 10
2.866111111111107
 20
0.3386111111111126
 30
0.0
 10
2.83069444444445
 20
0.4026388888888858
 30
0.0
 10
2.814027777777773
 20
0.4745833333333343
 30
0.0
 10
2.792222222222222
 20
0.5438888888888869
 30
0.0
 10
2.713611111111113
 20
0.5362499999999955
 30
0.0
 10
2.632083333333336
 20
0.5191666666666681
 30
0.0
 10
2.554722222222217
 20
0.5433333333333318
 30
0.0
 10
2.513194444444442
 20
0.5541666666666616
 30
0.0
 10
2.469583333333339
 20
0.5783333333333378
 30
0.0
 10
2.42666666666667
 20
0.5598611111111166
 30
0.0
 10
2.351805555555555
 20
0.5330555555555571
 30
0.0
 10
2.275138888888894
 20
0.5023611111111121
 30
0.0
 10
2.193888888888889
 20
0.5100000000000036
 30
0.0
 10
2.030694444444445
 20
0.5190277777777762
 30
0.0
 10
1.894722222222223
 20
0.6358333333333298
 30
0.0
 10
1.812638888888892
 20
0.7699999999999944
 30
0.0
 10
1.78347222222222
 20
0.8166666666666691
 30
0.0
 10
1.79944444444445
 20
0.8737499999999979
 30
0.0
 10
1.812083333333337
 20
0.923055555555556
 30
0.0
 10
1.838194444444449
 20
1.021388888888888
 30
0.0
 10
1.899166666666664
 20
1.115555555555551
 30
0.0
 10
1.994444444444449
 20
1.158194444444449
 30
0.0
 10
2.122222222222224
 20
1.22097222222222
 30
0.0
 10
2.268333333333329
 20
1.194722222222228
 30
0.0
 10
2.404166666666672
 20
1.220416666666665
 30
0.0
 10
2.540416666666665
 20
1.245138888888884
 30
0.0
 10
2.678194444444443
 20
1.303749999999998
 30
0.0
 10
2.766250000000001
 20
1.414722222222218
 30
0.0
 10
2.808749999999994
 20
1.465694444444441
 30
0.0
 10
2.820277777777783
 20
1.534027777777775
 30
0.0
 10
2.857499999999997
 20
1.588055555555558
 30
0.0
  0
HATCH
  5
58
330
53
100
AcDbEntity
  8
Layer 1
 62
   187
420
  4736621
100
AcDbHatch
 10
0.0
 20
0.0
 30
0.0
210
0.0
220
0.0
230
1.0
  2
SOLID
 70
     1
 71
     0
 91
        1
 92
        1
 93
        1
 72
     4
 94
        3
 73
     0
 74
     1
 95
       86
 96
       82
 40
0.0
 40
0.0
 40
0.0
 40
0.0
 40
1.0
 40
1.0
 40
1.0
 40
2.0
 40
2.0
 40
2.0
 40
3.0
 40
3.0
 40
3.0
 40
4.0
 40
4.0
 40
4.0
 40
5.0
 40
5.0
 40
5.0
 40
6.0
 40
6.0
 40
6.0
 40
7.0
 40
7.0
 40
7.0
 40
8.0
 40
8.0
 40
8.0
 40
9.0
 40
9.0
 40
9.0
 40
10.0
 40
10.0
 40
10.0
 40
11.0
 40
11.0
 40
11.0
 40
12.0
 40
12.0
 40
12.0
 40
13.0
 40
13.0
 40
13.0
 40
14.0
 40
14.0
 40
14.0
 40
15.0
 40
15.0
 40
15.0
 40
16.0
 40
16.0
 40
16.0
 40
17.0
 40
17.0
 40
17.0
 40
18.0
 40
18.0
 40
18.0
 40
19.0
 40
19.0
 40
19.0
 40
20.0
 40
20.0
 40
20.0
 40
21.0
 40
21.0
 40
21.0
 40
22.0
 40
22.0
 40
22.0
 40
23.0
 40
23.0
 40
23.0
 40
24.0
 40
24.0
 40
24.0
 40
25.0
 40
25.0
 40
25.0
 40
26.0
 40
26.0
 40
26.0
 40
27.0
 40
27.0
 40
27.0
 40
27.0
 10
2.857499999999997
 20
1.588055555555558
 10
2.958472222222225
 20
1.622361111111116
 10
3.071805555555557
 20
1.615138888888888
 10
3.174583333333329
 20
1.591249999999996
 10
3.349583333333334
 20
1.546527777777783
 10
3.458055555555549
 20
1.370416666666668
 10
3.474583333333334
 20
1.198611111111114
 10
3.408055555555557
 20
1.154305555555551
 10
3.334861111111106
 20
1.108194444444444
 10
3.302083333333333
 20
1.031666666666663
 10
3.275138888888894
 20
0.9683333333333368
 10
3.270694444444441
 20
0.8913888888888929
 10
3.300138888888884
 20
0.8281944444444459
 10
3.311111111111106
 20
0.800000000000005
 10
3.345555555555557
 20
0.795555555555552
 10
3.370138888888884
 20
0.8080555555555595
 10
3.389305555555552
 20
0.8463888888888833
 10
3.37277777777778
 20
0.8904166666666621
 10
3.374305555555553
 20
0.9308333333333394
 10
3.366527777777782
 20
1.008472222222218
 10
3.42888888888889
 20
1.074166666666669
 10
3.497083333333332
 20
1.100277777777781
 10
3.594027777777784
 20
1.137222222222224
 10
3.702638888888891
 20
1.104166666666667
 10
3.786944444444442
 20
1.051249999999994
 10
3.82319444444445
 20
1.026527777777776
 10
3.866249999999998
 20
0.9936111111111106
 10
3.864027777777778
 20
0.9447222222222282
 10
3.860972222222219
 20
0.8341666666666722
 10
3.822916666666667
 20
0.7230555555555611
 10
3.750555555555555
 20
0.638611111111105
 10
3.681388888888894
 20
0.5561111111111106
 10
3.588055555555557
 20
0.498055555555551
 10
3.49138888888889
 20
0.4527777777777828
 10
3.43333333333333
 20
0.425000000000005
 10
3.368750000000002
 20
0.4124999999999974
 10
3.311944444444445
 20
0.3819444444444444
 10
3.268055555555558
 20
0.3563888888888869
 10
3.280555555555553
 20
0.2952777777777808
 10
3.283888888888883
 20
0.2530555555555591
 10
3.29527777777778
 20
0.1681944444444399
 10
3.370138888888884
 20
0.1169444444444454
 10
3.435416666666672
 20
0.0727777777777747
 10
3.412638888888889
 20
0.0555555555555556
 10
3.391527777777772
 20
0.03125
 10
3.360416666666664
 20
0.0313888888888919
 10
3.279444444444443
 20
0.0202777777777783
 10
3.199583333333332
 20
0.0484722222222192
 10
3.130833333333334
 20
0.0893055555555596
 10
3.024027777777772
 20
0.1490277777777717
 10
2.927361111111117
 20
0.2315277777777788
 10
2.866111111111107
 20
0.3386111111111126
 10
2.83069444444445
 20
0.4026388888888858
 10
2.814027777777773
 20
0.4745833333333343
 10
2.792222222222222
 20
0.5438888888888869
 10
2.713611111111113
 20
0.5362499999999955
 10
2.632083333333336
 20
0.5191666666666681
 10
2.554722222222217
 20
0.5433333333333318
 10
2.513194444444442
 20
0.5541666666666616
 10
2.469583333333339
 20
0.5783333333333378
 10
2.42666666666667
 20
0.5598611111111166
 10
2.351805555555555
 20
0.5330555555555571
 10
2.275138888888894
 20
0.5023611111111121
 10
2.193888888888889
 20
0.5100000000000036
 10
2.030694444444445
 20
0.5190277777777762
 10
1.894722222222223
 20
0.6358333333333298
 10
1.812638888888892
 20
0.7699999999999944
 10
1.78347222222222
 20
0.8166666666666691
 10
1.79944444444445
 20
0.8737499999999979
 10
1.812083333333337
 20
0.923055555555556
 10
1.838194444444449
 20
1.021388888888888
 10
1.899166666666664
 20
1.115555555555551
 10
1.994444444444449
 20
1.158194444444449
 10
2.122222222222224
 20
1.22097222222222
 10
2.268333333333329
 20
1.194722222222228
 10
2.404166666666672
 20
1.220416666666665
 10
2.540416666666665
 20
1.245138888888884
 10
2.678194444444443
 20
1.303749999999998
 10
2.766250000000001
 20
1.414722222222218
 10
2.808749999999994
 20
1.465694444444441
 10
2.820277777777783
 20
1.534027777777775
 10
2.857499999999997
 20
1.588055555555558
 97
        0
 97
        0
 75
     2
 76
     1
 98
        0
  0
ENDBLK
  5
56
330
53
100
AcDbEntity
  8
0
100
AcDbBlockEnd
  0
ENDSEC
  0
SECTION
  2
ENTITIES
  0
INSERT
  5
42
330
1F
100
AcDbEntity
  8
Layer 1
100
AcDbBlockReference
  2
block 2
 10
0.0
 20
0.0
 30
0.0
  0
INSERT
  5
48
330
1F
100
AcDbEntity
  8
Layer 1
100
AcDbBlockReference
  2
block 3
 10
0.0
 20
0.0
 30
0.0
  0
INSERT
  5
4E
330
1F
100
AcDbEntity
  8
Layer 1
100
AcDbBlockReference
  2
block 4
 10
0.0
 20
0.0
 30
0.0
  0
INSERT
  5
54
330
1F
100
AcDbEntity
  8
Layer 1
100
AcDbBlockReference
  2
block 5
 10
0.0
 20
0.0
 30
0.0
  0
ENDSEC
  0
SECTION
  2
OBJECTS
  0
DICTIONARY
  5
C
330
0
100
AcDbDictionary
281
     1
  3
ACAD_GROUP
350
D
  3
ACAD_LAYOUT
350
1A
  3
ACAD_MATERIAL
350
3B
  3
ACAD_MLEADERSTYLE
350
5A
  3
ACAD_MLINESTYLE
350
17
  3
ACAD_PLOTSETTINGS
350
19
  3
ACAD_PLOTSTYLENAME
350
E
  3
ACAD_TABLESTYLE
350
59
  3
ACAD_VISUALSTYLE
350
2A
  0
SUN
  5
3F
330
29
100
AcDbSun
 90
        1
290
     0
 63
     7
421
 16777215
 40
1.0
291
     1
 91
  2455826
 92
 54000000
292
     0
 70
     2
 71
   256
280
     1
  0
DICTIONARY
  5
D
102
{ACAD_REACTORS
330
C
102
}
330
C
100
AcDbDictionary
281
     1
  0
DICTIONARY
  5
1A
102
{ACAD_REACTORS
330
C
102
}
330
C
100
AcDbDictionary
281
     1
  3
Layout1
350
1E
  3
Layout2
350
26
  3
Model
350
22
  0
DICTIONARY
  5
3B
102
{ACAD_REACTORS
330
C
102
}
330
C
100
AcDbDictionary
281
     1
  3
ByBlock
350
3D
  3
ByLayer
350
3C
  3
Global
350
3E
  0
DICTIONARY
  5
5A
102
{ACAD_REACTORS
330
C
102
}
330
C
100
AcDbDictionary
281
     1
  0
DICTIONARY
  5
17
102
{ACAD_REACTORS
330
C
102
}
330
C
100
AcDbDictionary
281
     1
  3
Standard
350
18
  0
DICTIONARY
  5
19
102
{ACAD_REACTORS
330
C
102
}
330
C
100
AcDbDictionary
281
     1
  0
ACDBDICTIONARYWDFLT
  5
E
102
{ACAD_REACTORS
330
C
102
}
330
C
100
AcDbDictionary
281
     1
  3
Normal
350
F
100
AcDbDictionaryWithDefault
340
F
  0
DICTIONARY
  5
59
102
{ACAD_REACTORS
330
C
102
}
330
C
100
AcDbDictionary
281
     1
  0
DICTIONARY
  5
2A
102
{ACAD_REACTORS
330
C
102
}
330
C
100
AcDbDictionary
281
     1
  3
2dWireframe
350
2F
  3
3D Hidden
350
31
  3
3dWireframe
350
30
  3
Basic
350
32
  3
Brighten
350
36
  3
ColorChange
350
3A
  3
Conceptual
350
34
  3
Dim
350
35
  3
Facepattern
350
39
  3
Flat
350
2B
  3
FlatWithEdges
350
2C
  3
Gouraud
350
2D
  3
GouraudWithEdges
350
2E
  3
Linepattern
350
38
  3
Realistic
350
33
  3
Thicken
350
37
  0
LAYOUT
  5
1E
102
{ACAD_REACTORS
330
1A
102
}
330
1A
100
AcDbPlotSettings
  1

  2
none_device
  4

  6

 40
0.0
 41
0.0
 42
0.0
 43
0.0
 44
0.0
 45
0.0
 46
0.0
 47
0.0
 48
0.0
 49
0.0
140
0.0
141
0.0
142
1.0
143
1.0
 70
   688
 72
     0
 73
     0
 74
     5
  7

 75
    16
 76
     0
 77
     2
 78
   300
147
1.0
148
0.0
149
0.0
100
AcDbLayout
  1
Layout1
 70
     1
 71
     1
 10
0.0
 20
0.0
 11
12.0
 21
9.0
 12
0.0
 22
0.0
 32
0.0
 14
1.000000000000000E+20
 24
1.000000000000000E+20
 34
1.000000000000000E+20
 15
-1.000000000000000E+20
 25
-1.000000000000000E+20
 35
-1.000000000000000E+20
146
0.0
 13
0.0
 23
0.0
 33
0.0
 16
1.0
 26
0.0
 36
0.0
 17
0.0
 27
1.0
 37
0.0
 76
     0
330
1B
  0
LAYOUT
  5
26
102
{ACAD_REACTORS
330
1A
102
}
330
1A
100
AcDbPlotSettings
  1

  2
none_device
  4

  6

 40
0.0
 41
0.0
 42
0.0
 43
0.0
 44
0.0
 45
0.0
 46
0.0
 47
0.0
 48
0.0
 49
0.0
140
0.0
141
0.0
142
1.0
143
1.0
 70
   688
 72
     0
 73
     0
 74
     5
  7

 75
    16
 76
     0
 77
     2
 78
   300
147
1.0
148
0.0
149
0.0
100
AcDbLayout
  1
Layout2
 70
     1
 71
     2
 10
0.0
 20
0.0
 11
0.0
 21
0.0
 12
0.0
 22
0.0
 32
0.0
 14
0.0
 24
0.0
 34
0.0
 15
0.0
 25
0.0
 35
0.0
146
0.0
 13
0.0
 23
0.0
 33
0.0
 16
1.0
 26
0.0
 36
0.0
 17
0.0
 27
1.0
 37
0.0
 76
     0
330
23
  0
LAYOUT
  5
22
102
{ACAD_REACTORS
330
1A
102
}
330
1A
100
AcDbPlotSettings
  1

  2
none_device
  4

  6

 40
0.0
 41
0.0
 42
0.0
 43
0.0
 44
0.0
 45
0.0
 46
0.0
 47
0.0
 48
0.0
 49
0.0
140
0.0
141
0.0
142
1.0
143
1.0
 70
  1712
 72
     0
 73
     0
 74
     0
  7

 75
     0
 76
     0
 77
     2
 78
   300
147
1.0
148
0.0
149
0.0
100
AcDbLayout
  1
Model
 70
     1
 71
     0
 10
0.0
 20
0.0
 11
12.0
 21
9.0
 12
0.0
 22
0.0
 32
0.0
 14
1.000000000000000E+20
 24
1.000000000000000E+20
 34
1.000000000000000E+20
 15
-1.000000000000000E+20
 25
-1.000000000000000E+20
 35
-1.000000000000000E+20
146
0.0
 13
0.0
 23
0.0
 33
0.0
 16
1.0
 26
0.0
 36
0.0
 17
0.0
 27
1.0
 37
0.0
 76
     0
330
1F
331
29
  0
MATERIAL
  5
3D
102
{ACAD_REACTORS
330
3B
102
}
330
3B
100
AcDbMaterial
  1
ByBlock
 72
     1
 94
      127
  0
MATERIAL
  5
3C
102
{ACAD_REACTORS
330
3B
102
}
330
3B
100
AcDbMaterial
  1
ByLayer
 72
     1
 94
      127
  0
MATERIAL
  5
3E
102
{ACAD_REACTORS
330
3B
102
}
330
3B
100
AcDbMaterial
  1
Global
 72
     1
 94
      127
  0
MLINESTYLE
  5
18
102
{ACAD_REACTORS
330
17
102
}
330
17
100
AcDbMlineStyle
  2
Standard
 70
     0
  3

 62
   256
 51
90.0
 52
90.0
 71
     2
 49
0.5
 62
   256
  6
BYLAYER
 49
-0.5
 62
   256
  6
BYLAYER
  0
ACDBPLACEHOLDER
  5
F
102
{ACAD_REACTORS
330
E
102
}
330
E
  0
VISUALSTYLE
  5
2F
102
{ACAD_REACTORS
330
2A
102
}
330
2A
100
AcDbVisualStyle
  2
2dWireframe
 70
     4
177
     2
291
     0
 71
     0
176
     1
 72
     2
176
     1
 73
     0
176
     1
 90
        0
176
     1
 40
-0.6
176
     1
 41
-30.0
176
     1
 62
     5
 63
     7
421
 16777215
176
     1
 74
     1
176
     1
 91
        4
176
     1
 64
     7
176
     1
 65
   257
176
     1
 75
     1
176
     1
175
     1
176
     1
 42
1.0
176
     1
 92
        0
176
     1
 66
   257
176
     1
 43
1.0
176
     1
 76
     1
176
     1
 77
     6
176
     1
 78
     2
176
     1
 67
     7
176
     1
 79
     5
176
     1
170
     0
176
     1
171
     0
176
     1
290
     0
176
     1
 93
        1
176
     1
 44
0.0
176
     1
173
     0
176
     1
  0
VISUALSTYLE
  5
31
102
{ACAD_REACTORS
330
2A
102
}
330
2A
100
AcDbVisualStyle
  2
3D Hidden
 70
     6
177
     2
291
     0
 71
     1
176
     1
 72
     2
176
     1
 73
     2
176
     1
 90
        0
176
     1
 40
-0.6
176
     1
 41
-30.0
176
     1
 62
     5
 63
     7
421
 16777215
176
     1
 74
     2
176
     1
 91
        2
176
     1
 64
     7
176
     1
 65
   257
176
     1
 75
     2
176
     1
175
     1
176
     1
 42
40.0
176
     1
 92
        0
176
     1
 66
   257
176
     1
 43
1.0
176
     1
 76
     1
176
     1
 77
     6
176
     1
 78
     2
176
     1
 67
     7
176
     1
 79
     3
176
     1
170
     0
176
     1
171
     0
176
     1
290
     0
176
     1
 93
        1
176
     1
 44
0.0
176
     1
173
     0
176
     1
  0
VISUALSTYLE
  5
30
102
{ACAD_REACTORS
330
2A
102
}
330
2A
100
AcDbVisualStyle
  2
3dWireframe
 70
     5
177
     2
291
     0
 71
     0
176
     1
 72
     2
176
     1
 73
     0
176
     1
 90
        0
176
     1
 40
-0.6
176
     1
 41
-30.0
176
     1
 62
     5
 63
     7
421
 16777215
176
     1
 74
     1
176
     1
 91
        4
176
     1
 64
     7
176
     1
 65
   257
176
     1
 75
     1
176
     1
175
     1
176
     1
 42
1.0
176
     1
 92
        0
176
     1
 66
   257
176
     1
 43
1.0
176
     1
 76
     1
176
     1
 77
     6
176
     1
 78
     2
176
     1
 67
     7
176
     1
 79
     5
176
     1
170
     0
176
     1
171
     0
176
     1
290
     0
176
     1
 93
        1
176
     1
 44
0.0
176
     1
173
     0
176
     1
  0
VISUALSTYLE
  5
32
102
{ACAD_REACTORS
330
2A
102
}
330
2A
100
AcDbVisualStyle
  2
Basic
 70
     7
177
     2
291
     1
 71
     1
176
     1
 72
     0
176
     1
 73
     1
176
     1
 90
        0
176
     1
 40
-0.6
176
     1
 41
-30.0
176
     1
 62
     5
 63
     7
421
 16777215
176
     1
 74
     0
176
     1
 91
        4
176
     1
 64
     7
176
     1
 65
   257
176
     1
 75
     1
176
     1
175
     1
176
     1
 42
1.0
176
     1
 92
        8
176
     1
 66
     7
176
     1
 43
1.0
176
     1
 76
     1
176
     1
 77
     6
176
     1
 78
     2
176
     1
 67
     7
176
     1
 79
     5
176
     1
170
     0
176
     1
171
     0
176
     1
290
     0
176
     1
 93
        1
176
     1
 44
0.0
176
     1
173
     0
176
     1
  0
VISUALSTYLE
  5
36
102
{ACAD_REACTORS
330
2A
102
}
330
2A
100
AcDbVisualStyle
  2
Brighten
 70
    12
177
     2
291
     1
 71
     2
176
     1
 72
     2
176
     1
 73
     0
176
     1
 90
        0
176
     1
 40
-0.6
176
     1
 41
-30.0
176
     1
 62
     5
 63
     7
421
 16777215
176
     1
 74
     1
176
     1
 91
        4
176
     1
 64
     7
176
     1
 65
   257
176
     1
 75
     1
176
     1
175
     1
176
     1
 42
1.0
176
     1
 92
        8
176
     1
 66
     7
176
     1
 43
1.0
176
     1
 76
     1
176
     1
 77
     6
176
     1
 78
     2
176
     1
 67
     7
176
     1
 79
     5
176
     1
170
     0
176
     1
171
     0
176
     1
290
     0
176
     1
 93
        1
176
     1
 44
50.0
176
     1
173
     0
176
     1
  0
VISUALSTYLE
  5
3A
102
{ACAD_REACTORS
330
2A
102
}
330
2A
100
AcDbVisualStyle
  2
ColorChange
 70
    16
177
     2
291
     1
 71
     2
176
     1
 72
     2
176
     1
 73
     3
176
     1
 90
        0
176
     1
 40
-0.6
176
     1
 41
-30.0
176
     1
 62
     5
 63
     8
421
  8421504
176
     1
 74
     1
176
     1
 91
        4
176
     1
 64
     7
176
     1
 65
   257
176
     1
 75
     1
176
     1
175
     1
176
     1
 42
1.0
176
     1
 92
        8
176
     1
 66
     8
424
  8421504
176
     1
 43
1.0
176
     1
 76
     1
176
     1
 77
     6
176
     1
 78
     2
176
     1
 67
     7
176
     1
 79
     5
176
     1
170
     0
176
     1
171
     0
176
     1
290
     0
176
     1
 93
        1
176
     1
 44
0.0
176
     1
173
     0
176
     1
  0
VISUALSTYLE
  5
34
102
{ACAD_REACTORS
330
2A
102
}
330
2A
100
AcDbVisualStyle
  2
Conceptual
 70
     9
177
     2
291
     0
 71
     3
176
     1
 72
     2
176
     1
 73
     0
176
     1
 90
        0
176
     1
 40
-0.6
176
     1
 41
-30.0
176
     1
 62
     5
 63
     7
421
 16777215
176
     1
 74
     2
176
     1
 91
        2
176
     1
 64
     7
176
     1
 65
   257
176
     1
 75
     1
176
     1
175
     1
176
     1
 42
40.0
176
     1
 92
        8
176
     1
 66
     7
176
     1
 43
1.0
176
     1
 76
     1
176
     1
 77
     6
176
     1
 78
     2
176
     1
 67
     7
176
     1
 79
     3
176
     1
170
     0
176
     1
171
     0
176
     1
290
     0
176
     1
 93
        1
176
     1
 44
0.0
176
     1
173
     0
176
     1
  0
VISUALSTYLE
  5
35
102
{ACAD_REACTORS
330
2A
102
}
330
2A
100
AcDbVisualStyle
  2
Dim
 70
    11
177
     2
291
     1
 71
     2
176
     1
 72
     2
176
     1
 73
     0
176
     1
 90
        0
176
     1
 40
-0.6
176
     1
 41
-30.0
176
     1
 62
     5
 63
     7
421
 16777215
176
     1
 74
     1
176
     1
 91
        4
176
     1
 64
     7
176
     1
 65
   257
176
     1
 75
     1
176
     1
175
     1
176
     1
 42
1.0
176
     1
 92
        8
176
     1
 66
     7
176
     1
 43
1.0
176
     1
 76
     1
176
     1
 77
     6
176
     1
 78
     2
176
     1
 67
     7
176
     1
 79
     5
176
     1
170
     0
176
     1
171
     0
176
     1
290
     0
176
     1
 93
        1
176
     1
 44
-50.0
176
     1
173
     0
176
     1
  0
VISUALSTYLE
  5
39
102
{ACAD_REACTORS
330
2A
102
}
330
2A
100
AcDbVisualStyle
  2
Facepattern
 70
    15
177
     2
291
     1
 71
     2
176
     1
 72
     2
176
     1
 73
     0
176
     1
 90
        0
176
     1
 40
-0.6
176
     1
 41
-30.0
176
     1
 62
     5
 63
     7
421
 16777215
176
     1
 74
     1
176
     1
 91
        4
176
     1
 64
     7
176
     1
 65
   257
176
     1
 75
     1
176
     1
175
     1
176
     1
 42
1.0
176
     1
 92
        8
176
     1
 66
     7
176
     1
 43
1.0
176
     1
 76
     1
176
     1
 77
     6
176
     1
 78
     2
176
     1
 67
     7
176
     1
 79
     5
176
     1
170
     0
176
     1
171
     0
176
     1
290
     0
176
     1
 93
        1
176
     1
 44
0.0
176
     1
173
     0
176
     1
  0
VISUALSTYLE
  5
2B
102
{ACAD_REACTORS
330
2A
102
}
330
2A
100
AcDbVisualStyle
  2
Flat
 70
     0
177
     2
291
     1
 71
     2
176
     1
 72
     1
176
     1
 73
     1
176
     1
 90
        2
176
     1
 40
-0.6
176
     1
 41
30.0
176
     1
 62
     5
 63
     7
421
 16777215
176
     1
 74
     0
176
     1
 91
        4
176
     1
 64
     7
176
     1
 65
   257
176
     1
 75
     1
176
     1
175
     1
176
     1
 42
1.0
176
     1
 92
        8
176
     1
 66
     7
176
     1
 43
1.0
176
     1
 76
     1
176
     1
 77
     6
176
     1
 78
     2
176
     1
 67
     7
176
     1
 79
     5
176
     1
170
     0
176
     1
171
     0
176
     1
290
     0
176
     1
 93
       13
176
     1
 44
0.0
176
     1
173
     0
176
     1
  0
VISUALSTYLE
  5
2C
102
{ACAD_REACTORS
330
2A
102
}
330
2A
100
AcDbVisualStyle
  2
FlatWithEdges
 70
     1
177
     2
291
     1
 71
     2
176
     1
 72
     1
176
     1
 73
     1
176
     1
 90
        2
176
     1
 40
-0.6
176
     1
 41
30.0
176
     1
 62
     5
 63
     7
421
 16777215
176
     1
 74
     1
176
     1
 91
        4
176
     1
 64
     7
176
     1
 65
   257
176
     1
 75
     1
176
     1
175
     1
176
     1
 42
1.0
176
     1
 92
        0
176
     1
 66
   257
176
     1
 43
1.0
176
     1
 76
     1
176
     1
 77
     6
176
     1
 78
     2
176
     1
 67
     7
176
     1
 79
     5
176
     1
170
     0
176
     1
171
     0
176
     1
290
     0
176
     1
 93
       13
176
     1
 44
0.0
176
     1
173
     0
176
     1
  0
VISUALSTYLE
  5
2D
102
{ACAD_REACTORS
330
2A
102
}
330
2A
100
AcDbVisualStyle
  2
Gouraud
 70
     2
177
     2
291
     1
 71
     2
176
     1
 72
     2
176
     1
 73
     1
176
     1
 90
        2
176
     1
 40
-0.6
176
     1
 41
30.0
176
     1
 62
     5
 63
     7
421
 16777215
176
     1
 74
     0
176
     1
 91
        4
176
     1
 64
     7
176
     1
 65
   257
176
     1
 75
     1
176
     1
175
     1
176
     1
 42
1.0
176
     1
 92
        0
176
     1
 66
     7
176
     1
 43
1.0
176
     1
 76
     1
176
     1
 77
     6
176
     1
 78
     2
176
     1
 67
     7
176
     1
 79
     5
176
     1
170
     0
176
     1
171
     0
176
     1
290
     0
176
     1
 93
       13
176
     1
 44
0.0
176
     1
173
     0
176
     1
  0
VISUALSTYLE
  5
2E
102
{ACAD_REACTORS
330
2A
102
}
330
2A
100
AcDbVisualStyle
  2
GouraudWithEdges
 70
     3
177
     2
291
     1
 71
     2
176
     1
 72
     2
176
     1
 73
     1
176
     1
 90
        2
176
     1
 40
-0.6
176
     1
 41
30.0
176
     1
 62
     5
 63
     7
421
 16777215
176
     1
 74
     1
176
     1
 91
        4
176
     1
 64
     7
176
     1
 65
   257
176
     1
 75
     1
176
     1
175
     1
176
     1
 42
1.0
176
     1
 92
        0
176
     1
 66
   257
176
     1
 43
1.0
176
     1
 76
     1
176
     1
 77
     6
176
     1
 78
     2
176
     1
 67
     7
176
     1
 79
     5
176
     1
170
     0
176
     1
171
     0
176
     1
290
     0
176
     1
 93
       13
176
     1
 44
0.0
176
     1
173
     0
176
     1
  0
VISUALSTYLE
  5
38
102
{ACAD_REACTORS
330
2A
102
}
330
2A
100
AcDbVisualStyle
  2
Linepattern
 70
    14
177
     2
291
     1
 71
     2
176
     1
 72
     2
176
     1
 73
     0
176
     1
 90
        0
176
     1
 40
-0.6
176
     1
 41
-30.0
176
     1
 62
     5
 63
     7
421
 16777215
176
     1
 74
     1
176
     1
 91
        4
176
     1
 64
     7
176
     1
 65
   257
176
     1
 75
     7
176
     1
175
     7
176
     1
 42
1.0
176
     1
 92
        8
176
     1
 66
     7
176
     1
 43
1.0
176
     1
 76
     1
176
     1
 77
     6
176
     1
 78
     2
176
     1
 67
     7
176
     1
 79
     5
176
     1
170
     0
176
     1
171
     0
176
     1
290
     0
176
     1
 93
        1
176
     1
 44
0.0
176
     1
173
     0
176
     1
  0
VISUALSTYLE
  5
33
102
{ACAD_REACTORS
330
2A
102
}
330
2A
100
AcDbVisualStyle
  2
Realistic
 70
     8
177
     2
291
     0
 71
     2
176
     1
 72
     2
176
     1
 73
     0
176
     1
 90
        0
176
     1
 40
-0.6
176
     1
 41
-30.0
176
     1
 62
     5
 63
     7
421
 16777215
176
     1
 74
     1
176
     1
 91
        0
176
     1
 64
     7
176
     1
 65
   257
176
     1
 75
     1
176
     1
175
     1
176
     1
 42
1.0
176
     1
 92
        8
176
     1
 66
     8
424
  7895160
176
     1
 43
1.0
176
     1
 76
     1
176
     1
 77
     6
176
     1
 78
     2
176
     1
 67
     7
176
     1
 79
     5
176
     1
170
     0
176
     1
171
     0
176
     1
290
     0
176
     1
 93
       13
176
     1
 44
0.0
176
     1
173
     0
176
     1
  0
VISUALSTYLE
  5
37
102
{ACAD_REACTORS
330
2A
102
}
330
2A
100
AcDbVisualStyle
  2
Thicken
 70
    13
177
     2
291
     1
 71
     2
176
     1
 72
     2
176
     1
 73
     0
176
     1
 90
        0
176
     1
 40
-0.6
176
     1
 41
-30.0
176
     1
 62
     5
 63
     7
421
 16777215
176
     1
 74
     1
176
     1
 91
        4
176
     1
 64
     7
176
     1
 65
   257
176
     1
 75
     1
176
     1
175
     1
176
     1
 42
1.0
176
     1
 92
       12
176
     1
 66
     7
176
     1
 43
1.0
176
     1
 76
     1
176
     1
 77
     6
176
     1
 78
     2
176
     1
 67
     7
176
     1
 79
     5
176
     1
170
     0
176
     1
171
     0
176
     1
290
     0
176
     1
 93
        1
176
     1
 44
0.0
176
     1
173
     0
176
     1
  0
ENDSEC
  0
EOF
